<svg id="Layer_1" data-name="Layer 1" xmlns="http://www.w3.org/2000/svg" viewBox="0 0 47.81 9.52"><defs><style>.cls-1{fill:#97a1a8;}.cls-1,.cls-2{fill-rule:evenodd;}.cls-2{fill:#fff;}</style></defs><title>logo_white</title><path class="cls-1" d="M34.67,22.86H30a6.83,6.83,0,0,1,2.26.7l0,0a3.54,3.54,0,0,0-1,1,4.44,4.44,0,0,0-.62,1.45,4.58,4.58,0,0,0-.11.91,2,2,0,0,0,.52,1.43A2.13,2.13,0,0,0,32,29a4.17,4.17,0,0,0,1.28.18,4.67,4.67,0,0,0,1.28-.19,3.94,3.94,0,0,0,2.78-3,4.4,4.4,0,0,0,.11-.89,2,2,0,0,0-.53-1.45A2.2,2.2,0,0,0,36,23a4.28,4.28,0,0,0-1.29-.18Zm7.85,1.76a4.66,4.66,0,0,0-.61,1.45,4,4,0,0,0-.12.91,2,2,0,0,0,.53,1.43,2.13,2.13,0,0,0,.9.54,4.17,4.17,0,0,0,1.28.18,4.54,4.54,0,0,0,1.27-.19,3.9,3.9,0,0,0,2.78-3,3.84,3.84,0,0,0,.12-.89,2,2,0,0,0-.53-1.45,2.2,2.2,0,0,0-.92-.54,4.28,4.28,0,0,0-1.29-.18H41.3a6.71,6.71,0,0,1,2.25.7l0,0a3.71,3.71,0,0,0-1,1Zm1,2.36a4,4,0,0,1,.1-.77,4.08,4.08,0,0,1,.92-1.9,2.48,2.48,0,0,1,.6-.45,1.46,1.46,0,0,1,.62-.16,1.1,1.1,0,0,1,.55.14,1,1,0,0,1,.4.39,1.57,1.57,0,0,1,.22.86,3,3,0,0,1-.09.69,4.2,4.2,0,0,1-.94,1.89,2.18,2.18,0,0,1-.61.46,1.49,1.49,0,0,1-.63.17,1.21,1.21,0,0,1-.55-.14.88.88,0,0,1-.38-.36,1.49,1.49,0,0,1-.21-.82ZM28.05,25.59l.07-.29a3.35,3.35,0,0,0,.1-.7.65.65,0,0,0-.2-.53.49.49,0,0,0-.28-.08,1.23,1.23,0,0,0-.75.42,5.42,5.42,0,0,0-.78,1,4.24,4.24,0,0,0-.5,1.18l-.1.42c-.11.48-.21.95-.29,1.41q0,.34-.06.42c0,.1,0,.15,0,.15H23.41c.14-.4.27-.85.4-1.33,0-.11.09-.33.17-.67l.05-.18.3-1.31a3.89,3.89,0,0,0,.15-.95c0-.05,0-.11,0-.18A.41.41,0,0,0,24,24a1.2,1.2,0,0,0-.76.45,5.3,5.3,0,0,0-.75,1A4.69,4.69,0,0,0,22,26.52l-.07.29c-.12.45-.22,1-.32,1.56,0,.26-.06.46-.08.62H19.73c.14-.43.27-.87.39-1.31.05-.19.13-.48.22-.87l.31-1.27c.14-.6.27-1.21.37-1.82l0-.28.07-.44H23c-.17.39-.31.78-.45,1.17-.06.18-.12.37-.18.58a4.65,4.65,0,0,1,.48-.67,4.47,4.47,0,0,1,.63-.6,2.32,2.32,0,0,1,1.43-.62,1.35,1.35,0,0,1,.95.28,1,1,0,0,1,.31.84,3.78,3.78,0,0,1-.09.75,5.6,5.6,0,0,1,1.08-1.29,2.11,2.11,0,0,1,1.32-.57,1.36,1.36,0,0,1,1.36.64,1.52,1.52,0,0,1,.12.64,3.8,3.8,0,0,1-.11.86l-.59,2.57a3.38,3.38,0,0,0-.08.53.25.25,0,0,0,.06.19.24.24,0,0,0,.18.06,1,1,0,0,0,.42-.1l-.21.68a2.21,2.21,0,0,1-1.05.22,1.19,1.19,0,0,1-.56-.11.9.9,0,0,1-.36-.31,1.12,1.12,0,0,1-.16-.58,1.56,1.56,0,0,1,.05-.33l.53-2.24Zm4.32.62a4,4,0,0,1,.91-1.9,2.48,2.48,0,0,1,.6-.45,1.47,1.47,0,0,1,.63-.16,1.12,1.12,0,0,1,1,.53,1.66,1.66,0,0,1,.21.86,3,3,0,0,1-.09.69,4.1,4.1,0,0,1-.94,1.89,2.29,2.29,0,0,1-.6.46,1.57,1.57,0,0,1-.64.17,1.2,1.2,0,0,1-.54-.14.9.9,0,0,1-.39-.36,1.49,1.49,0,0,1-.2-.82,3.32,3.32,0,0,1,.1-.77Zm7.06-3.35c.19-.6.34-1.06.55-1.6h1.46l-.11.45a.85.85,0,0,0,0,.17l0,.17a1.36,1.36,0,0,1,0,.2c-.3,1.19-.57,2.38-.85,3.58-.1.44-.18.81-.23,1.09a4.1,4.1,0,0,0-.07.7.93.93,0,0,0,.13.56.6.6,0,0,0,.47.19,1.47,1.47,0,0,0,.46-.07l-.17.74-.27.07a3,3,0,0,1-.66.06A2.24,2.24,0,0,1,39,29a.94.94,0,0,1-.49-.59,2,2,0,0,1-.07-.59,4.51,4.51,0,0,1,.08-.83c0-.31.12-.68.22-1.12l.47-2h0c0-.44-1.86-1-2.52-1Z" transform="translate(-0.86 -20.48)"/><path class="cls-2" d="M17,25.58l0-.14.07-.31.09-.46.24-1.24.07-.43h1.84l-.07.22c-.15.48-.29,1-.41,1.41s-.17.66-.24,1l-.44,2a2.3,2.3,0,0,0-.08.5s0,.07,0,.12a.22.22,0,0,0,.24.16.91.91,0,0,0,.41-.1l-.2.68a2.23,2.23,0,0,1-1.05.22,1.23,1.23,0,0,1-.57-.11.81.81,0,0,1-.35-.31,1,1,0,0,1-.16-.58,1.47,1.47,0,0,1,0-.33L17,25.58Zm.72-4.27a1.06,1.06,0,0,1,.39-.6,1.52,1.52,0,0,1,.87-.23.89.89,0,0,1,.7.23.6.6,0,0,1,.12.38,1,1,0,0,1,0,.22,1,1,0,0,1-.36.57,1.31,1.31,0,0,1-.82.24,1,1,0,0,1-.75-.24.54.54,0,0,1-.14-.38A1.11,1.11,0,0,1,17.71,21.31Z" transform="translate(-0.86 -20.48)"/><path class="cls-2" d="M12.27,30,8.62,28.78H6.19a.35.35,0,0,1-.35-.34h0a.35.35,0,0,1,.35-.35H7a.35.35,0,0,0,.35-.35h0A.35.35,0,0,0,7,27.39H3.29a.35.35,0,0,1-.35-.34h0a.35.35,0,0,1,.35-.35H5.83a.35.35,0,0,0,.35-.35h0A.35.35,0,0,0,5.83,26H1.52a.35.35,0,0,1-.35-.35h0a.35.35,0,0,1,.35-.35H5.25A.34.34,0,0,0,5.59,25h0a.34.34,0,0,0-.34-.35H3.12a.35.35,0,0,1-.35-.35h0a.35.35,0,0,1,.35-.35h2.5A.34.34,0,0,0,6,23.58H6a.35.35,0,0,0-.34-.35H4a4.67,4.67,0,0,1,8.51.87c-.65.47-1.73-.2-2.65-.41-1.79-.39-2.43,1.95-.69,3.15a3.46,3.46,0,0,0,1.18.52c2,.53,2.43.82,1.89,2.64ZM4.82,28.09H4.08a.34.34,0,0,0-.34.35h0a.34.34,0,0,0,.34.34h.74a.35.35,0,0,0,.35-.34h0a.35.35,0,0,0-.35-.35ZM1.21,23.92a.35.35,0,0,0-.35.35h0a.35.35,0,0,0,.35.35h.73a.35.35,0,0,0,.35-.35h0a.35.35,0,0,0-.35-.35Z" transform="translate(-0.86 -20.48)"/></svg>