<svg id="Layer_1" data-name="Layer 1" xmlns="http://www.w3.org/2000/svg" viewBox="0 0 141.14 80.98"><defs><style>.cls-1{fill:#97a1a8;}.cls-1,.cls-2{fill-rule:evenodd;}.cls-2{fill:#074c8c;}</style></defs><title>logo</title><path class="cls-1" d="M84.75,90.6H64.45c2.22.16,7.54,1.55,9.89,3.07l-.21.14a16.49,16.49,0,0,0-4.3,4.46,20.16,20.16,0,0,0-2.69,6.38,18.6,18.6,0,0,0-.5,3.95,8.66,8.66,0,0,0,2.28,6.29,9.22,9.22,0,0,0,4,2.36,18.61,18.61,0,0,0,5.6.78,21.14,21.14,0,0,0,5.58-.81A17.17,17.17,0,0,0,96.22,104a17.18,17.18,0,0,0,.51-3.88,8.75,8.75,0,0,0-2.33-6.35,9.39,9.39,0,0,0-4-2.38,19.1,19.1,0,0,0-5.62-.76Zm34.35,7.67a19.92,19.92,0,0,0-2.68,6.38,18,18,0,0,0-.51,3.95,8.66,8.66,0,0,0,2.28,6.29,9.22,9.22,0,0,0,4,2.36,18.66,18.66,0,0,0,5.6.78,21.22,21.22,0,0,0,5.59-.81A17.15,17.15,0,0,0,145.49,104a17.18,17.18,0,0,0,.51-3.88,8.75,8.75,0,0,0-2.33-6.35,9.33,9.33,0,0,0-4-2.38A19.06,19.06,0,0,0,134,90.6H113.73c2.22.16,7.53,1.55,9.88,3.07l-.2.14a16.52,16.52,0,0,0-4.31,4.46Zm4.38,10.33a16.4,16.4,0,0,1,.43-3.36,17.38,17.38,0,0,1,4-8.29,9.3,9.3,0,0,1,2.62-2,6.74,6.74,0,0,1,2.75-.74,5.45,5.45,0,0,1,2.39.64,4.83,4.83,0,0,1,1.76,1.72,7.15,7.15,0,0,1,.94,3.75,13.68,13.68,0,0,1-.38,3,18.12,18.12,0,0,1-4.13,8.26,9.59,9.59,0,0,1-2.64,2,6.57,6.57,0,0,1-2.78.76,5.55,5.55,0,0,1-2.39-.59,4.22,4.22,0,0,1-1.69-1.61,6.67,6.67,0,0,1-.89-3.6Zm-67.71-6.08.3-1.26a13.82,13.82,0,0,0,.41-3,2.85,2.85,0,0,0-.84-2.33,2,2,0,0,0-1.26-.35c-.88,0-2,.61-3.24,1.84a20.42,20.42,0,0,0-3.42,4.39,18.64,18.64,0,0,0-2.21,5.14l-.43,1.82q-.77,3.17-1.26,6.21c-.16,1-.25,1.58-.28,1.82-.09.44-.11.66-.08.66h-8c.61-1.77,1.2-3.72,1.77-5.83.14-.47.38-1.44.74-2.91l.2-.78,1.34-5.75A17.65,17.65,0,0,0,40.12,98c0-.21,0-.46,0-.76a1.76,1.76,0,0,0-2-1.67c-.93,0-2,.65-3.32,2a23,23,0,0,0-3.3,4.41,18.56,18.56,0,0,0-2.07,4.68l-.33,1.27q-.77,2.94-1.39,6.84c-.17,1.11-.29,2-.36,2.71h-8c.63-1.89,1.2-3.81,1.73-5.75.23-.81.55-2.08,1-3.8l1.34-5.57q1-3.93,1.62-8l.2-1.24.28-1.9h8.06q-1.07,2.53-1.95,5.12c-.29.78-.55,1.62-.79,2.53a18.58,18.58,0,0,1,2.1-2.93,22.74,22.74,0,0,1,2.74-2.64,10.18,10.18,0,0,1,6.26-2.68,6.18,6.18,0,0,1,4.19,1.19,4.76,4.76,0,0,1,1.35,3.72A15.3,15.3,0,0,1,47,98.78a23.9,23.9,0,0,1,4.76-5.65,9.17,9.17,0,0,1,5.78-2.48q4.6,0,5.95,2.78A6.64,6.64,0,0,1,64,96.22a17.87,17.87,0,0,1-.5,3.77l-2.59,11.27a14,14,0,0,0-.33,2.28,1.16,1.16,0,0,0,.26.86,1,1,0,0,0,.78.26,4.18,4.18,0,0,0,1.82-.46l-.88,3a10,10,0,0,1-4.61,1,5.54,5.54,0,0,1-2.47-.5,3.74,3.74,0,0,1-1.56-1.38,4.71,4.71,0,0,1-.68-2.5,7.7,7.7,0,0,1,.17-1.45l2.36-9.83Zm18.87,2.72a17.46,17.46,0,0,1,4-8.29,9.48,9.48,0,0,1,2.63-2A6.73,6.73,0,0,1,84,94.24a5.49,5.49,0,0,1,2.4.64,4.83,4.83,0,0,1,1.76,1.72,7.14,7.14,0,0,1,.93,3.75,13.11,13.11,0,0,1-.38,3,18,18,0,0,1-4.13,8.26,9.31,9.31,0,0,1-2.64,2,6.53,6.53,0,0,1-2.78.76,5.54,5.54,0,0,1-2.38-.59,4.15,4.15,0,0,1-1.69-1.61,6.67,6.67,0,0,1-.89-3.6,15.73,15.73,0,0,1,.43-3.36ZM105.55,90.6c.85-2.65,1.51-4.64,2.42-7h6.39l-.48,2c-.07.23-.13.48-.19.73l-.19.76c0,.19-.11.48-.21.89-1.28,5.19-2.47,10.41-3.7,15.62-.45,2-.79,3.56-1,4.79a18.11,18.11,0,0,0-.33,3.09,4,4,0,0,0,.61,2.44,2.46,2.46,0,0,0,2,.8,7.48,7.48,0,0,0,2-.27l-.71,3.23A10.79,10.79,0,0,1,111,118a13.41,13.41,0,0,1-2.89.25,10.18,10.18,0,0,1-4.56-.82,4.15,4.15,0,0,1-2.13-2.6,9,9,0,0,1-.32-2.55,22.29,22.29,0,0,1,.34-3.64c.23-1.38.56-3,1-4.9l2-8.65,0,0c0-2-8.15-4.25-11.05-4.46Z" transform="translate(-4.86 -37.22)"/><path class="cls-2" d="M7.37,102.47l.12-.6c.12-.54.21-1,.28-1.35l.41-2c.54-2.72.88-4.53,1-5.44l.3-1.88h8.05l-.3,1q-1,3.14-1.77,6.18c-.39,1.43-.75,2.86-1.07,4.28l-1.92,8.63a9.68,9.68,0,0,0-.33,2.18,3.62,3.62,0,0,0,.05.51.9.9,0,0,0,1,.71,4.19,4.19,0,0,0,1.83-.46l-.89,3a10,10,0,0,1-4.61,1,5.54,5.54,0,0,1-2.47-.5,3.74,3.74,0,0,1-1.56-1.38,4.71,4.71,0,0,1-.68-2.5A7,7,0,0,1,5,112.35l2.33-9.88Zm3.14-18.66a4.23,4.23,0,0,1,1.72-2.61,6.32,6.32,0,0,1,3.77-1,3.78,3.78,0,0,1,3.07,1,2.45,2.45,0,0,1,.53,1.62,4.49,4.49,0,0,1-.13,1,4.23,4.23,0,0,1-1.59,2.51,5.77,5.77,0,0,1-3.57,1,4.38,4.38,0,0,1-3.27-1,2.33,2.33,0,0,1-.63-1.68A3.1,3.1,0,0,1,10.51,83.81Z" transform="translate(-4.86 -37.22)"/><path class="cls-2" d="M96,77.21,80,71.88H69.35a1.52,1.52,0,0,1-1.52-1.52h0a1.53,1.53,0,0,1,1.52-1.52H72.7a1.52,1.52,0,0,0,1.52-1.51h0a1.53,1.53,0,0,0-1.52-1.52h-16a1.53,1.53,0,0,1-1.52-1.52h0a1.52,1.52,0,0,1,1.52-1.52H67.78a1.52,1.52,0,0,0,1.52-1.52h0a1.53,1.53,0,0,0-1.52-1.52H48.92a1.53,1.53,0,0,1-1.52-1.52h0a1.53,1.53,0,0,1,1.52-1.52H65.23a1.52,1.52,0,0,0,1.52-1.51h0a1.52,1.52,0,0,0-1.52-1.52h-9.3a1.53,1.53,0,0,1-1.52-1.52h0a1.52,1.52,0,0,1,1.52-1.52H66.85a1.53,1.53,0,0,0,1.52-1.52h0a1.53,1.53,0,0,0-1.52-1.52H59.9c7.2-14,31.09-14.87,37.24,3.81-2.85,2.07-7.57-.9-11.6-1.79-7.81-1.72-10.61,8.51-3,13.76a16.48,16.48,0,0,0,5.2,2.32C96.61,68,98.36,69.25,96,77.21ZM63.37,68.84H60.14a1.53,1.53,0,0,0-1.52,1.52h0a1.52,1.52,0,0,0,1.52,1.52h3.23a1.52,1.52,0,0,0,1.52-1.52h0a1.53,1.53,0,0,0-1.52-1.52ZM47.55,50.62A1.52,1.52,0,0,0,46,52.14h0a1.53,1.53,0,0,0,1.52,1.52h3.23a1.53,1.53,0,0,0,1.52-1.52h0a1.52,1.52,0,0,0-1.52-1.52Z" transform="translate(-4.86 -37.22)"/></svg>