<svg id="Layer_1" data-name="Layer 1" xmlns="http://www.w3.org/2000/svg" viewBox="0 0 49.38 38.63"><defs><style>.cls-1{fill:#fff;fill-rule:evenodd;}</style></defs><title>logo_icon_white</title><path class="cls-1" d="M48.89,44.83,33.44,39.68H23.15a1.47,1.47,0,0,1-1.46-1.46h0a1.47,1.47,0,0,1,1.46-1.47h3.24a1.47,1.47,0,0,0,1.47-1.47h0a1.47,1.47,0,0,0-1.47-1.46H10.89a1.47,1.47,0,0,1-1.46-1.47h0a1.47,1.47,0,0,1,1.46-1.47H21.64a1.47,1.47,0,0,0,1.46-1.47h0A1.47,1.47,0,0,0,21.64,28H3.42A1.47,1.47,0,0,1,2,26.48H2A1.47,1.47,0,0,1,3.42,25H19.18a1.47,1.47,0,0,0,1.46-1.47h0a1.47,1.47,0,0,0-1.46-1.46h-9a1.47,1.47,0,0,1-1.46-1.47h0a1.47,1.47,0,0,1,1.46-1.47H20.74a1.47,1.47,0,0,0,1.47-1.46h0a1.47,1.47,0,0,0-1.47-1.47H14c7-13.49,30-14.37,36,3.67-2.75,2-7.31-.86-11.21-1.72-7.54-1.67-10.24,8.22-2.92,13.3a16,16,0,0,0,5,2.23c8.6,2.21,10.29,3.45,8,11.14ZM17.38,36.75H14.26a1.47,1.47,0,0,0-1.47,1.47h0a1.47,1.47,0,0,0,1.47,1.46h3.12a1.47,1.47,0,0,0,1.47-1.46h0a1.47,1.47,0,0,0-1.47-1.47ZM2.09,19.14A1.47,1.47,0,0,0,.62,20.61h0a1.47,1.47,0,0,0,1.47,1.47H5.22a1.47,1.47,0,0,0,1.46-1.47h0a1.47,1.47,0,0,0-1.46-1.47Z" transform="translate(-0.62 -6.2)"/></svg>